<svg width="23" height="23" viewBox="0 0 23 23" fill="none" xmlns="http://www.w3.org/2000/svg">
<path fill-rule="evenodd" clip-rule="evenodd" d="M0.883301 2.14757C0.883301 1.6601 1.07695 1.1926 1.42164 0.84791C1.76633 0.503219 2.23383 0.309573 2.7213 0.309573H21.0433C21.2849 0.309178 21.5242 0.356436 21.7474 0.448639C21.9707 0.540843 22.1736 0.676183 22.3445 0.846909C22.5155 1.01764 22.651 1.2204 22.7435 1.44358C22.8359 1.66677 22.8834 1.906 22.8833 2.14757V20.4696C22.8836 20.7112 22.8362 20.9505 22.7439 21.1738C22.6516 21.3971 22.5161 21.6 22.3453 21.7709C22.1745 21.9418 21.9717 22.0773 21.7484 22.1698C21.5252 22.2622 21.2859 22.3097 21.0443 22.3096H2.7213C2.47985 22.3096 2.24076 22.262 2.0177 22.1696C1.79464 22.0771 1.59197 21.9417 1.42129 21.7709C1.2506 21.6001 1.11523 21.3974 1.02292 21.1743C0.930614 20.9511 0.88317 20.712 0.883301 20.4706V2.14757ZM9.5913 8.69757H12.5703V10.1936C13.0003 9.33357 14.1003 8.55957 15.7533 8.55957C18.9223 8.55957 19.6733 10.2726 19.6733 13.4156V19.2376H16.4663V14.1316C16.4663 12.3416 16.0363 11.3316 14.9443 11.3316C13.4293 11.3316 12.7993 12.4206 12.7993 14.1316V19.2376H9.5913V8.69757ZM4.0913 19.1006H7.2993V8.55957H4.0913V19.0996V19.1006ZM7.7583 5.12157C7.76435 5.39625 7.71547 5.66936 7.61454 5.92489C7.51361 6.18041 7.36265 6.41321 7.17053 6.6096C6.97841 6.806 6.749 6.96205 6.49576 7.06858C6.24251 7.17511 5.97054 7.22999 5.6958 7.22999C5.42106 7.22999 5.14909 7.17511 4.89585 7.06858C4.6426 6.96205 4.41319 6.806 4.22107 6.6096C4.02895 6.41321 3.87799 6.18041 3.77706 5.92489C3.67613 5.66936 3.62725 5.39625 3.6333 5.12157C3.64517 4.58243 3.86769 4.06936 4.25319 3.69226C4.63869 3.31515 5.15653 3.10399 5.6958 3.10399C6.23508 3.10399 6.75292 3.31515 7.13842 3.69226C7.52392 4.06936 7.74643 4.58243 7.7583 5.12157Z" fill="white"/>
</svg>
