<svg width="37" height="30" viewBox="0 0 37 30" fill="none" xmlns="http://www.w3.org/2000/svg">
<path d="M36.3969 3.55548C35.0625 4.14674 33.6291 4.54624 32.1222 4.72681C33.6771 3.79644 34.8403 2.33216 35.3949 0.607179C33.9341 1.47487 32.3353 2.08564 30.668 2.41291C29.5469 1.2158 28.0618 0.422333 26.4435 0.155704C24.8251 -0.110925 23.164 0.164201 21.7181 0.938368C20.2721 1.71253 19.1222 2.94243 18.4468 4.4371C17.7715 5.93177 17.6085 7.60759 17.9832 9.20439C15.0232 9.05577 12.1275 8.28642 9.48411 6.94627C6.8407 5.60612 4.50862 3.72512 2.63922 1.42535C2.00002 2.52797 1.63249 3.80636 1.63249 5.16785C1.63177 6.39351 1.9336 7.60039 2.51119 8.68142C3.08878 9.76244 3.92427 10.6842 4.94353 11.3649C3.76146 11.3273 2.60546 11.0079 1.57176 10.4332V10.5291C1.57164 12.2482 2.16627 13.9143 3.25474 15.2448C4.34322 16.5753 5.8585 17.4883 7.54347 17.8288C6.4469 18.1255 5.29723 18.1692 4.18129 17.9566C4.65669 19.4357 5.58272 20.7292 6.82975 21.6558C8.07678 22.5825 9.58237 23.096 11.1358 23.1245C8.4988 25.1946 5.24217 26.3174 1.88976 26.3125C1.29592 26.3127 0.702575 26.278 0.112793 26.2086C3.51568 28.3966 7.47689 29.5578 11.5225 29.5532C25.2173 29.5532 32.7039 18.2107 32.7039 8.37343C32.7039 8.05383 32.6959 7.73104 32.6815 7.41144C34.1378 6.35832 35.3948 5.05423 36.3937 3.56027L36.3969 3.55548Z" fill="white"/>
</svg>