<svg width="39" height="29" viewBox="0 0 39 29" fill="none" xmlns="http://www.w3.org/2000/svg">
<path d="M32.8642 2.44237C30.4193 1.33975 27.7985 0.524773 25.058 0.061355C25.0336 0.0566695 25.0083 0.059689 24.9857 0.0699959C24.9631 0.0803027 24.9442 0.0973871 24.9317 0.118883C24.5962 0.708543 24.2222 1.47718 23.9602 2.08442C21.0536 1.65014 18.0986 1.65014 15.192 2.08442C14.9001 1.41144 14.5709 0.755243 14.206 0.118883C14.1936 0.0971224 14.1749 0.0796516 14.1524 0.0688018C14.1298 0.057952 14.1045 0.0542391 14.0798 0.0581588C11.3408 0.521577 8.7201 1.33655 6.27357 2.44077C6.25252 2.4496 6.23467 2.46465 6.22243 2.48391C1.24947 9.79474 -0.113617 16.925 0.555942 23.9657C0.557805 23.983 0.563158 23.9997 0.571674 24.0148C0.580191 24.0299 0.591693 24.0431 0.60548 24.0536C3.50806 26.1669 6.74551 27.7767 10.1823 28.8157C10.2062 28.823 10.2318 28.823 10.2558 28.8156C10.2797 28.8082 10.3009 28.7937 10.3165 28.7741C11.056 27.7851 11.7114 26.7358 12.2756 25.6373C12.2835 25.6222 12.288 25.6057 12.2889 25.5888C12.2898 25.5719 12.287 25.555 12.2808 25.5392C12.2746 25.5235 12.2651 25.5092 12.2529 25.4975C12.2407 25.4857 12.2261 25.4767 12.2101 25.4711C11.1778 25.0823 10.1776 24.6132 9.21867 24.068C9.20144 24.0582 9.18692 24.0442 9.17641 24.0274C9.16591 24.0106 9.15975 23.9914 9.15848 23.9716C9.15721 23.9518 9.16088 23.932 9.16915 23.914C9.17743 23.8959 9.19005 23.8802 9.20589 23.8683C9.40723 23.7197 9.60858 23.5647 9.80034 23.4096C9.8176 23.3957 9.83839 23.3868 9.8604 23.384C9.88241 23.3812 9.90476 23.3845 9.92498 23.3937C16.2003 26.2125 22.9966 26.2125 29.1984 23.3937C29.2187 23.384 29.2413 23.3802 29.2636 23.3828C29.2859 23.3853 29.3071 23.3941 29.3246 23.408C29.5164 23.5647 29.7161 23.7197 29.9191 23.8683C29.9351 23.88 29.9479 23.8955 29.9564 23.9133C29.965 23.9312 29.969 23.9509 29.968 23.9707C29.9671 23.9905 29.9612 24.0098 29.951 24.0267C29.9408 24.0437 29.9265 24.0579 29.9095 24.068C28.9539 24.6177 27.9599 25.0827 26.9165 25.4695C26.9004 25.4753 26.8858 25.4844 26.8736 25.4964C26.8614 25.5083 26.8519 25.5226 26.8457 25.5385C26.8395 25.5544 26.8368 25.5714 26.8377 25.5885C26.8386 25.6055 26.8431 25.6221 26.8509 25.6373C27.4262 26.7351 28.0846 27.7802 28.8085 28.7725C28.8235 28.7929 28.8445 28.8081 28.8685 28.8161C28.8925 28.8241 28.9185 28.8245 28.9427 28.8173C32.3854 27.7812 35.6281 26.1706 38.5339 24.0536C38.5481 24.0437 38.5599 24.0309 38.5688 24.016C38.5776 24.0011 38.5831 23.9845 38.585 23.9673C39.384 15.8272 37.2459 8.75444 32.9137 2.48711C32.9031 2.46674 32.8855 2.45087 32.8642 2.44237ZM13.2137 19.6783C11.3248 19.6783 9.76678 17.9701 9.76678 15.8751C9.76678 13.7785 11.2945 12.0719 13.2137 12.0719C15.1472 12.0719 16.6909 13.7929 16.6605 15.8751C16.6605 17.9717 15.1328 19.6783 13.2137 19.6783ZM25.9577 19.6783C24.0672 19.6783 22.5108 17.9701 22.5108 15.8751C22.5108 13.7785 24.0369 12.0719 25.9577 12.0719C27.8912 12.0719 29.4349 13.7929 29.4045 15.8751C29.4045 17.9717 27.8928 19.6783 25.9577 19.6783Z" fill="white"/>
</svg>