<svg width="34" height="26" viewBox="0 0 34 26" fill="none" xmlns="http://www.w3.org/2000/svg">
<path d="M32.0135 0.378102C31.8722 0.363549 31.7299 0.363549 31.5887 0.378102H2.57794C2.39201 0.380967 2.2073 0.408846 2.02881 0.460989L17.0004 15.3704L32.0135 0.378102Z" fill="white"/>
<path d="M33.5469 1.81787L18.4613 16.8413C18.0731 17.2272 17.5479 17.4439 17.0004 17.4439C16.453 17.4439 15.9278 17.2272 15.5395 16.8413L0.58864 1.93184C0.542678 2.10077 0.518308 2.27484 0.516113 2.44989V23.1718C0.516113 23.7214 0.734433 24.2485 1.12304 24.6371C1.51166 25.0257 2.03873 25.244 2.58831 25.244H31.599C32.1486 25.244 32.6757 25.0257 33.0643 24.6371C33.4529 24.2485 33.6712 23.7214 33.6712 23.1718V2.44989C33.663 2.23402 33.621 2.02078 33.5469 1.81787ZM4.00776 23.1718H2.56759V21.6902L10.1 14.22L11.5609 15.6809L4.00776 23.1718ZM31.5783 23.1718H30.1278L22.5746 15.6809L24.0355 14.22L31.5679 21.6902L31.5783 23.1718Z" fill="white"/>
</svg>
