<svg width="117" height="117" viewBox="0 0 117 117" fill="none" xmlns="http://www.w3.org/2000/svg">
<path d="M0.167969 58.7112C0.167969 26.6543 26.1552 0.666992 58.2122 0.666992V0.666992C90.2691 0.666992 116.256 26.6543 116.256 58.7112V58.7112C116.256 90.7681 90.2691 116.755 58.2122 116.755V116.755C26.1552 116.755 0.167969 90.7681 0.167969 58.7112V58.7112Z" fill="#131121"/>
<path d="M58.2801 72.4622C56.8934 72.4622 55.8801 72.2755 55.2401 71.9022C54.6001 71.5288 54.2001 71.0222 54.0401 70.3822C53.9334 69.6888 53.8801 68.9422 53.8801 68.1422V62.9422C53.8801 61.6622 54.1734 60.6488 54.7601 59.9022C55.3468 59.1555 56.0934 58.5422 57.0001 58.0622C57.9601 57.5288 58.9468 57.0488 59.9601 56.6222C61.0268 56.1422 62.0134 55.6088 62.9201 55.0222C63.8801 54.3822 64.6534 53.5555 65.2401 52.5422C65.8268 51.5288 66.1201 50.1955 66.1201 48.5422C66.1201 46.0888 65.4268 44.2222 64.0401 42.9422C62.7068 41.6088 60.6534 40.9422 57.8801 40.9422C56.6001 40.9422 55.4534 41.1555 54.4401 41.5822C53.4268 41.9555 52.5734 42.4888 51.8801 43.1822C51.2401 43.8222 50.7601 44.5955 50.4401 45.5022C50.1201 46.5155 49.7201 47.2888 49.2401 47.8222C48.8134 48.3555 48.2534 48.6755 47.5601 48.7822C46.9201 48.8888 46.0134 48.7555 44.8401 48.3822C43.7201 47.9022 42.8934 47.4488 42.3601 47.0222C41.8268 46.5955 41.5068 46.0622 41.4001 45.4222C41.3468 44.7822 41.4801 43.9555 41.8001 42.9422C41.9601 42.2488 42.2801 41.4488 42.7601 40.5422C43.2401 39.6355 43.8801 38.7022 44.6801 37.7422C45.5334 36.7288 46.5734 35.8222 47.8001 35.0222C49.0801 34.1688 50.5468 33.5022 52.2001 33.0222C53.8534 32.4888 55.7468 32.2222 57.8801 32.2222C61.2934 32.2222 64.2801 32.9155 66.8401 34.3022C69.4001 35.6355 71.3734 37.5288 72.7601 39.9822C74.2001 42.3822 74.9201 45.1822 74.9201 48.3822C74.9201 50.3022 74.6534 52.0355 74.1201 53.5822C73.5868 55.1288 72.8401 56.4888 71.8801 57.6622C70.9734 58.8355 69.9601 59.8488 68.8401 60.7022C67.7201 61.5555 66.6001 62.2488 65.4801 62.7822C64.3601 63.3155 63.3201 63.7155 62.3601 63.9822L62.8401 63.1022V68.4622C62.8401 69.2088 62.7601 69.9022 62.6001 70.5422C62.4401 71.1288 62.0401 71.6088 61.4001 71.9822C60.7601 72.3022 59.7201 72.4622 58.2801 72.4622ZM58.2001 89.4222C56.0134 89.4222 54.5734 88.9955 53.8801 88.1422C53.1868 87.2888 52.8401 85.9022 52.8401 83.9822C52.8401 83.1822 52.9201 82.3822 53.0801 81.5822C53.2401 80.7288 53.6934 80.0355 54.4401 79.5022C55.1868 78.9155 56.4668 78.6222 58.2801 78.6222C60.5201 78.6222 61.9601 79.0488 62.6001 79.9022C63.2934 80.7555 63.6401 82.1422 63.6401 84.0622C63.6401 84.9155 63.5601 85.7688 63.4001 86.6222C63.2934 87.4222 62.8401 88.0888 62.0401 88.6222C61.2934 89.1555 60.0134 89.4222 58.2001 89.4222Z" fill="white"/>
</svg>
